<svg width="14" height="13" viewBox="0 0 14 13" fill="none" xmlns="http://www.w3.org/2000/svg">
<path d="M3.495 0.675C2.58167 1.595 2.58167 3.075 3.495 3.98833L9.155 9.64167C9.54167 10.035 9.54167 10.675 9.155 11.055C8.76167 11.4483 8.12833 11.4483 7.735 11.055L4.90833 8.22833L5.615 7.52167L3.26167 5.16167L3.02167 5.40167L2.08167 4.455C1.82167 4.195 1.40167 4.195 1.12833 4.455L0.195 5.40167C-0.065 5.675 -0.065 6.08167 0.195 6.34167L1.12833 7.28167L0.901667 7.52167L3.26167 9.875L3.96833 9.16833L6.795 12.0083C7.70833 12.9083 9.18167 12.9083 10.095 12.0083C11.0083 11.0883 11.0083 9.60833 10.095 8.70167L4.435 3.04167C4.04833 2.64833 4.04833 2.00833 4.435 1.62833C4.82833 1.235 5.46167 1.235 5.855 1.62833L8.68167 4.455L7.975 5.16167L10.3283 7.52167L10.5683 7.28167L11.5083 8.22833C11.7683 8.48833 12.195 8.48833 12.4617 8.22833L13.395 7.28167C13.655 7.00833 13.655 6.60167 13.395 6.34167L12.4617 5.40167L12.6883 5.16167L10.3283 2.80833L9.62167 3.515L6.795 0.675C5.88167 -0.225 4.40833 -0.225 3.495 0.675ZM0.668333 5.86833L1.60833 4.92833L2.555 5.86833L1.60833 6.815M11.035 6.815L11.9817 5.86833L12.9217 6.815L11.9817 7.755L11.035 6.815Z" fill="black"/>
</svg>
