<svg width="15" height="13" viewBox="0 0 15 13" fill="none" xmlns="http://www.w3.org/2000/svg">
<path d="M5.33333 2C6.04058 2 6.71885 2.28095 7.21895 2.78105C7.71905 3.28115 8 3.95942 8 4.66667C8 5.37391 7.71905 6.05219 7.21895 6.55229C6.71885 7.05238 6.04058 7.33333 5.33333 7.33333C4.62609 7.33333 3.94781 7.05238 3.44772 6.55229C2.94762 6.05219 2.66667 5.37391 2.66667 4.66667C2.66667 3.95942 2.94762 3.28115 3.44772 2.78105C3.94781 2.28095 4.62609 2 5.33333 2ZM5.33333 8.66667C7.11333 8.66667 10.6667 9.56 10.6667 11.3333V12.6667H0V11.3333C0 9.56 3.55333 8.66667 5.33333 8.66667ZM10.5067 2.24C11.8533 3.70667 11.8533 5.74 10.5067 7.08667L9.38667 5.96C9.94667 5.17333 9.94667 4.15333 9.38667 3.36667L10.5067 2.24ZM12.7133 0C15.3333 2.7 15.3133 6.74 12.7133 9.33333L11.6267 8.24667C13.4733 6.12667 13.4733 3.1 11.6267 1.08667L12.7133 0Z" fill="black"/>
</svg>
