<svg width="15" height="8" viewBox="0 0 15 8" fill="none" xmlns="http://www.w3.org/2000/svg">
<path d="M1.33333 5.33333L1.66667 5.38L4.71333 2.33333C4.59333 1.9 4.70667 1.40667 5.06 1.06C5.58 0.533333 6.42 0.533333 6.94 1.06C7.29333 1.40667 7.40667 1.9 7.28667 2.33333L9 4.04667L9.33333 4C9.45333 4 9.56667 4 9.66667 4.04667L12.0467 1.66667C12 1.56667 12 1.45333 12 1.33333C12 0.979711 12.1405 0.640573 12.3905 0.390524C12.6406 0.140476 12.9797 0 13.3333 0C13.687 0 14.0261 0.140476 14.2761 0.390524C14.5262 0.640573 14.6667 0.979711 14.6667 1.33333C14.6667 1.68696 14.5262 2.02609 14.2761 2.27614C14.0261 2.52619 13.687 2.66667 13.3333 2.66667C13.2133 2.66667 13.1 2.66667 13 2.62L10.62 5C10.6667 5.1 10.6667 5.21333 10.6667 5.33333C10.6667 5.68696 10.5262 6.02609 10.2761 6.27614C10.0261 6.52619 9.68696 6.66667 9.33333 6.66667C8.97971 6.66667 8.64057 6.52619 8.39052 6.27614C8.14048 6.02609 8 5.68696 8 5.33333L8.04667 5L6.33333 3.28667C6.12 3.33333 5.88 3.33333 5.66667 3.28667L2.62 6.33333L2.66667 6.66667C2.66667 7.02029 2.52619 7.35943 2.27614 7.60948C2.02609 7.85952 1.68696 8 1.33333 8C0.979711 8 0.640573 7.85952 0.390524 7.60948C0.140476 7.35943 0 7.02029 0 6.66667C0 6.31305 0.140476 5.97391 0.390524 5.72386C0.640573 5.47381 0.979711 5.33333 1.33333 5.33333Z" fill="black"/>
</svg>
